<svg xmlns="http://www.w3.org/2000/svg" xmlns:xlink="http://www.w3.org/1999/xlink" viewBox="0 0 60.033 18.141" height="68.565" width="226.895"><g transform="translate(-45.767 -26.783)"><path id="a" style="fill:#666;fill-opacity:1;stroke:#ccc;stroke-width:.352778;stroke-miterlimit:4;stroke-dasharray:none;stroke-opacity:1" d="M71.39 38.959h2v2h-2z"/><use height="100%" width="100%" transform="translate(0 -2)" id="b" xlink:href="#a" y="0" x="0" style="fill:#666;fill-opacity:1;stroke:#ccc;stroke-width:.352778;stroke-miterlimit:4;stroke-dasharray:none;stroke-opacity:1"/><use height="100%" width="100%" transform="translate(0 -4)" id="c" xlink:href="#a" y="0" x="0" style="fill:#666;fill-opacity:1;stroke:#ccc;stroke-width:.352778;stroke-miterlimit:4;stroke-dasharray:none;stroke-opacity:1"/><use height="100%" width="100%" transform="translate(0 -6)" id="d" xlink:href="#a" y="0" x="0" style="fill:#666;fill-opacity:1;stroke:#ccc;stroke-width:.352778;stroke-miterlimit:4;stroke-dasharray:none;stroke-opacity:1"/><use height="100%" width="100%" transform="translate(0 -8)" id="e" xlink:href="#a" y="0" x="0" style="fill:#666;fill-opacity:1;stroke:#ccc;stroke-width:.352778;stroke-miterlimit:4;stroke-dasharray:none;stroke-opacity:1"/><use height="100%" width="100%" transform="translate(0 -10)" id="f" xlink:href="#a" y="0" x="0" style="fill:#666;fill-opacity:1;stroke:#ccc;stroke-width:.352778;stroke-miterlimit:4;stroke-dasharray:none;stroke-opacity:1"/><use height="100%" width="100%" transform="translate(0 -12)" id="g" xlink:href="#a" y="0" x="0" style="fill:#666;fill-opacity:1;stroke:#ccc;stroke-width:.352778;stroke-miterlimit:4;stroke-dasharray:none;stroke-opacity:1"/><use height="100%" width="100%" transform="translate(24.233)" id="i" xlink:href="#a" y="0" x="0" style="fill:#666;fill-opacity:1;stroke:#ccc;stroke-width:.352778;stroke-miterlimit:4;stroke-dasharray:none;stroke-opacity:1"/><use height="100%" width="100%" transform="translate(24.233)" xlink:href="#b" style="fill:#666;fill-opacity:1;stroke:#ccc;stroke-width:.352778;stroke-miterlimit:4;stroke-dasharray:none;stroke-opacity:1"/><use height="100%" width="100%" transform="translate(24.233)" xlink:href="#c" style="fill:#666;fill-opacity:1;stroke:#ccc;stroke-width:.352778;stroke-miterlimit:4;stroke-dasharray:none;stroke-opacity:1"/><use height="100%" width="100%" transform="translate(24.233)" xlink:href="#d" style="fill:#666;fill-opacity:1;stroke:#ccc;stroke-width:.352778;stroke-miterlimit:4;stroke-dasharray:none;stroke-opacity:1"/><use height="100%" width="100%" transform="translate(24.233)" xlink:href="#e" style="fill:#666;fill-opacity:1;stroke:#ccc;stroke-width:.352778;stroke-miterlimit:4;stroke-dasharray:none;stroke-opacity:1"/><use height="100%" width="100%" transform="translate(24.233)" xlink:href="#f" style="fill:#666;fill-opacity:1;stroke:#ccc;stroke-width:.352778;stroke-miterlimit:4;stroke-dasharray:none;stroke-opacity:1"/><use height="100%" width="100%" transform="translate(24.233)" id="h" xlink:href="#g" y="0" x="0" style="fill:#666;fill-opacity:1;stroke:#ccc;stroke-width:.352778;stroke-miterlimit:4;stroke-dasharray:none;stroke-opacity:1"/><use height="100%" width="100%" transform="translate(2)" xlink:href="#h" style="fill:#666;fill-opacity:1;stroke:#ccc;stroke-width:.352778;stroke-miterlimit:4;stroke-dasharray:none;stroke-opacity:1"/><use height="100%" width="100%" transform="translate(4 -12)" xlink:href="#i" style="fill:#666;fill-opacity:1;stroke:#ccc;stroke-width:.352778;stroke-miterlimit:4;stroke-dasharray:none;stroke-opacity:1"/><use height="100%" width="100%" transform="translate(2 -6)" xlink:href="#i" style="fill:#666;fill-opacity:1;stroke:#ccc;stroke-width:.352778;stroke-miterlimit:4;stroke-dasharray:none;stroke-opacity:1"/><use height="100%" width="100%" transform="translate(4 -6)" xlink:href="#i" style="fill:#666;fill-opacity:1;stroke:#ccc;stroke-width:.352778;stroke-miterlimit:4;stroke-dasharray:none;stroke-opacity:1"/><use height="100%" width="100%" transform="translate(8 -8)" id="l" xlink:href="#i" y="0" x="0" style="fill:#666;fill-opacity:1;stroke:#ccc;stroke-width:.352778;stroke-miterlimit:4;stroke-dasharray:none;stroke-opacity:1"/><use height="100%" width="100%" transform="translate(8 -10)" id="m" xlink:href="#i" y="0" x="0" style="fill:#666;fill-opacity:1;stroke:#ccc;stroke-width:.352778;stroke-miterlimit:4;stroke-dasharray:none;stroke-opacity:1"/><use height="100%" width="100%" transform="translate(2)" id="j" xlink:href="#a" y="0" x="0" style="fill:#666;fill-opacity:1;stroke:#ccc;stroke-width:.352778;stroke-miterlimit:4;stroke-dasharray:none;stroke-opacity:1"/><use height="100%" width="100%" transform="translate(4 2)" id="n" xlink:href="#b" y="0" x="0" style="fill:#666;fill-opacity:1;stroke:#ccc;stroke-width:.352778;stroke-miterlimit:4;stroke-dasharray:none;stroke-opacity:1"/><use height="100%" width="100%" transform="translate(0 -12)" id="k" xlink:href="#j" y="0" x="0" style="fill:#666;fill-opacity:1;stroke:#ccc;stroke-width:.352778;stroke-miterlimit:4;stroke-dasharray:none;stroke-opacity:1"/><use height="100%" width="100%" transform="translate(2)" id="o" xlink:href="#k" y="0" x="0" style="fill:#666;fill-opacity:1;stroke:#ccc;stroke-width:.352778;stroke-miterlimit:4;stroke-dasharray:none;stroke-opacity:1"/><use height="100%" width="100%" transform="translate(8 -2)" id="p" xlink:href="#c" y="0" x="0" style="fill:#666;fill-opacity:1;stroke:#ccc;stroke-width:.352778;stroke-miterlimit:4;stroke-dasharray:none;stroke-opacity:1"/><use height="100%" width="100%" transform="translate(8 -2)" xlink:href="#d" style="fill:#666;fill-opacity:1;stroke:#ccc;stroke-width:.352778;stroke-miterlimit:4;stroke-dasharray:none;stroke-opacity:1"/><use height="100%" width="100%" transform="translate(-26.233 6)" id="q" xlink:href="#l" y="0" x="0" style="fill:#666;fill-opacity:1;stroke:#ccc;stroke-width:.352778;stroke-miterlimit:4;stroke-dasharray:none;stroke-opacity:1"/><use height="100%" width="100%" transform="translate(-24.233 6)" id="r" xlink:href="#m" y="0" x="0" style="fill:#666;fill-opacity:1;stroke:#ccc;stroke-width:.352778;stroke-miterlimit:4;stroke-dasharray:none;stroke-opacity:1"/><use height="100%" width="100%" transform="translate(12.117)" xlink:href="#b" style="fill:#666;fill-opacity:1;stroke:#ccc;stroke-width:.352778;stroke-miterlimit:4;stroke-dasharray:none;stroke-opacity:1"/><use height="100%" width="100%" transform="translate(16.117)" xlink:href="#d" style="fill:#666;fill-opacity:1;stroke:#ccc;stroke-width:.352778;stroke-miterlimit:4;stroke-dasharray:none;stroke-opacity:1"/><use height="100%" width="100%" transform="translate(12.117)" xlink:href="#e" style="fill:#666;fill-opacity:1;stroke:#ccc;stroke-width:.352778;stroke-miterlimit:4;stroke-dasharray:none;stroke-opacity:1"/><use height="100%" width="100%" transform="translate(12.117)" xlink:href="#f" style="fill:#666;fill-opacity:1;stroke:#ccc;stroke-width:.352778;stroke-miterlimit:4;stroke-dasharray:none;stroke-opacity:1"/><use height="100%" width="100%" transform="translate(12.117)" xlink:href="#j" style="fill:#666;fill-opacity:1;stroke:#ccc;stroke-width:.352778;stroke-miterlimit:4;stroke-dasharray:none;stroke-opacity:1"/><use height="100%" width="100%" transform="translate(12.117)" xlink:href="#n" style="fill:#666;fill-opacity:1;stroke:#ccc;stroke-width:.352778;stroke-miterlimit:4;stroke-dasharray:none;stroke-opacity:1"/><use height="100%" width="100%" transform="translate(12.117)" xlink:href="#k" style="fill:#666;fill-opacity:1;stroke:#ccc;stroke-width:.352778;stroke-miterlimit:4;stroke-dasharray:none;stroke-opacity:1"/><use height="100%" width="100%" transform="translate(12.117)" xlink:href="#o" style="fill:#666;fill-opacity:1;stroke:#ccc;stroke-width:.352778;stroke-miterlimit:4;stroke-dasharray:none;stroke-opacity:1"/><use height="100%" width="100%" transform="translate(6.117)" xlink:href="#p" style="fill:#666;fill-opacity:1;stroke:#ccc;stroke-width:.352778;stroke-miterlimit:4;stroke-dasharray:none;stroke-opacity:1"/><path style="fill:#666;fill-opacity:1;stroke:#ccc;stroke-width:.352778;stroke-miterlimit:4;stroke-dasharray:none;stroke-opacity:1" d="M91.506 28.959h2v2h-2z"/><use height="100%" width="100%" transform="translate(14.117)" xlink:href="#q" style="fill:#666;fill-opacity:1;stroke:#ccc;stroke-width:.352778;stroke-miterlimit:4;stroke-dasharray:none;stroke-opacity:1"/><use height="100%" width="100%" transform="translate(12.117)" xlink:href="#r" style="fill:#666;fill-opacity:1;stroke:#ccc;stroke-width:.352778;stroke-miterlimit:4;stroke-dasharray:none;stroke-opacity:1"/><use style="fill:#666;fill-opacity:1;stroke:#ccc;stroke-width:.352778;stroke-miterlimit:4;stroke-dasharray:none;stroke-opacity:1" xlink:href="#k" transform="translate(4 2)" width="100%" height="100%"/><use style="fill:#666;fill-opacity:1;stroke:#ccc;stroke-width:.352778;stroke-miterlimit:4;stroke-dasharray:none;stroke-opacity:1" xlink:href="#o" transform="translate(14.117)" width="100%" height="100%"/><path style="fill:#666;fill-opacity:1;stroke:#ccc;stroke-width:.352778;stroke-miterlimit:4;stroke-dasharray:none;stroke-opacity:1" d="M89.506 32.959h2v2h-2zM89.506 38.959h2v2h-2z"/><path style="font-style:normal;font-variant:normal;font-weight:700;font-stretch:normal;font-size:16.9333px;line-height:1.25;font-family:'Dancing Script';-inkscape-font-specification:'Dancing Script Bold';opacity:.600474;fill:#d400d9;fill-opacity:1;stroke:#e6afe8;stroke-width:.352778;stroke-miterlimit:4;stroke-dasharray:none;stroke-opacity:1" d="M82.57 31.083c-1.169 0-4.657 6.3-5.287 9.841-.864 1.493-1.669 2.03-2.35 2.03-.491 0-.762-.17-.762-.898 0-1.49 1.744-3.472 1.744-4.047 0-.322-.237-.491-.508-.491-.97 0-1.927 2.02-2.327 3.55-.518.962-1.208 1.92-1.923 1.92-.339 0-.424-.221-.424-.458 0-.593.576-1.694.576-2.574 0-.627-.288-1.27-1.168-1.27-.982 0-1.812.796-2.455 1.744.186-.558.287-.897.287-1.355 0-.694-.237-1.422-1.067-1.422-1.117 0-2.37 1.32-3.301 2.59.135-.541.236-.998.236-1.218 0-.339-.254-.559-.575-.559-.322 0-.864.22-.932.474l-.549 2.198c-.867 1.334-1.717 1.85-2.177 1.85-.373 0-.508-.323-.508-.61 0-.746.965-1.795.965-2.236 0-.287-.39-.44-.61-.508.593-.016.966-.237.966-.812 0-.813-.779-1.355-1.744-1.355-1.869 0-3.81 2.002-4.514 3.818-1.023 1.483-2.612 2.65-4.122 2.65-1.778 0-2.455-1.591-2.455-3.217 0-3.691 3.15-8.873 5.621-8.873.56 0 .763.254.763.66 0 .915-1.152 2.523-1.846 3.285.203.39.457.525.694.525 1.033 0 2.083-2.32 2.083-3.674 0-1.118-.762-1.541-1.761-1.541-3.472 0-7.197 5.012-7.197 9.466 0 2.082 1.1 4.182 3.691 4.182 1.674 0 3.126-.912 4.253-2.23l-.002.063c0 .999.643 1.49 1.388 1.49.864 0 1.558-.678 2.456-1.761 0 .694.44 1.473 1.405 1.473.794 0 1.613-.496 2.32-1.318l-.203.81c0 .17.745.457 1.134.457.813-2.235 2.794-4.741 3.725-4.741.254 0 .356.186.356.508 0 1.05-1.117 3.335-1.117 3.725 0 .305.71.44 1.016.44.254-.406.558-1.067.93-1.608 1.017-1.508 1.66-2.32 2.185-2.32.22 0 .39.135.39.508 0 .626-.474 1.473-.474 2.235 0 .728.423 1.32 1.303 1.32.903 0 1.634-.643 2.19-1.46.024.8.512 1.444 1.485 1.444 1.064 0 2.05-.662 2.812-1.85.01 1.084.5 1.85 1.557 1.85.982 0 1.845-.677 2.624-1.829.017 1.084.508 1.83 1.541 1.83.767 0 1.465-.42 2.102-1.164.017.972.652 1.45 1.387 1.45.863 0 1.557-.677 2.455-1.76 0 .694.44 1.473 1.405 1.473 1.27 0 2.608-1.27 3.438-3.116l-.322-.321c-1.016 1.93-2.1 2.641-2.641 2.641-.373 0-.508-.322-.508-.61 0-.745.965-1.794.965-2.235 0-.287-.39-.44-.61-.508.593-.016.966-.237.966-.812 0-.813-.78-1.355-1.745-1.355-1.954 0-3.985 2.189-4.6 4.065-.539.823-1.184 1.472-1.784 1.472-.474 0-.694-.406-.694-1.253 0-.457.068-1.084.186-1.609 2.557-2.032 4.132-5.588 4.132-6.976 0-.61-.305-1.423-.728-1.423-1.1 0-4.2 5.52-4.843 8.992-.61 1.236-1.473 2.269-2.218 2.269-.457 0-.728-.373-.728-1.169 0-.44.084-1.117.186-1.693 2.574-2.032 4.572-6.214 4.572-7.67 0-.56-.288-1.389-.711-1.389zm-.085 1.558c.034.033.034.102.034.203 0 1.067-1.66 4.386-3.505 6.35.965-3.065 3.048-6.553 3.471-6.553zm3.776.677c.017.05.017.085.017.203 0 1.05-1.287 3.793-3.099 5.69.948-3.014 2.642-5.893 3.082-5.893zm-9.38 1.186c-.627 0-1.356.44-1.356.981 0 .458.424.66.847.66.61 0 1.236-.541 1.236-1.015 0-.474-.321-.626-.728-.626zm-18.17 3.59c.576 0 .711.423.711.88 0 .237-.017.406-.085.626l-.067-.017c-.051 0-.102.034-.136.085-.863 1.152-2.472 3.54-3.505 3.54-.271 0-.39-.153-.39-.543 0-1.558 1.897-4.572 3.472-4.572zm31.123 0c.576 0 .711.423.711.88 0 .237-.017.406-.085.626l-.067-.017c-.051 0-.102.034-.136.085-.863 1.152-2.472 3.54-3.505 3.54-.27 0-.389-.153-.389-.543 0-1.558 1.896-4.572 3.471-4.572z"/><use style="fill:#666;fill-opacity:1;stroke:#ccc;stroke-width:.352778;stroke-miterlimit:4;stroke-dasharray:none;stroke-opacity:1" xlink:href="#i" transform="translate(6 -12)" width="100%" height="100%"/><use style="fill:#666;fill-opacity:1;stroke:#ccc;stroke-width:.352778;stroke-miterlimit:4;stroke-dasharray:none;stroke-opacity:1" xlink:href="#i" transform="translate(6 -6)" width="100%" height="100%"/></g></svg>