<svg xmlns="http://www.w3.org/2000/svg" xmlns:xlink="http://www.w3.org/1999/xlink" viewBox="0 0 600 600"><defs><radialGradient id="a" cx="264.04" cy="344.18" fx="246.85336169196654" fy="365.83938444296206" r="755.5" gradientTransform="matrix(1, 0, 0, -1, 0, 600)" gradientUnits="userSpaceOnUse"><stop offset="0" stop-color="#444" stop-opacity="0.1"/><stop offset="1" stop-color="#444" stop-opacity="0.55"/></radialGradient></defs><title>default-cover-v6</title><rect width="600" height="600" style="fill:url(#a)"/><path d="M526.3,228.7H532v-1.5H518.9v1.5h5.7v15.5h1.7Zm10.9-1.5h-2.6v17h1.7V229.4h0l6.1,14.8h1l6.1-14.8h0v14.8h1.7v-17h-2.5L543,241.3h0Z" style="fill:#fff"/><path d="M80.4,268h-.3c0-1.4,0-3.3-.1-5.5s-.2-4.2-.4-6H70.2c.2,2.3.3,4.9.4,7.8s.1,5.2.1,7.1v52.5h9.8V289.3a35.7,35.7,0,0,1,1.7-11.7,25.2,25.2,0,0,1,4.5-8.2,18.8,18.8,0,0,1,6.3-4.9,17,17,0,0,1,7-1.6,18.8,18.8,0,0,1,8.1,1.5,11.6,11.6,0,0,1,5,4.3,18.6,18.6,0,0,1,2.5,6.8,52.6,52.6,0,0,1,.7,8.9v39.4h9.8V287.9a40.5,40.5,0,0,1,1-9.2,26.3,26.3,0,0,1,3.2-8,16.7,16.7,0,0,1,14.9-7.9c6.3,0,10.8,2.2,13.5,6.5s4,10,4,17.1v37.3h9.8V282.4c0-8.3-2.1-15.1-6.4-20.2s-10.7-7.6-19.2-7.6a26.3,26.3,0,0,0-14.2,3.7,24.7,24.7,0,0,0-9.4,10.6,25.3,25.3,0,0,0-4.1-7.1,22.1,22.1,0,0,0-5.2-4.4,17,17,0,0,0-5.8-2.2,27.6,27.6,0,0,0-5.7-.6,24.1,24.1,0,0,0-13.3,3.7A24.9,24.9,0,0,0,80.4,268Zm173.3,8.1A33.3,33.3,0,0,0,235,257.4a40,40,0,0,0-28.9,0,33,33,0,0,0-18.8,18.7,38.2,38.2,0,0,0,0,28.2,33.7,33.7,0,0,0,7.4,11.2,34.5,34.5,0,0,0,11.4,7.4,39.6,39.6,0,0,0,14.4,2.7,35.9,35.9,0,0,0,14.5-2.7,34.5,34.5,0,0,0,11.4-7.4,33.7,33.7,0,0,0,7.4-11.2,38.2,38.2,0,0,0,0-28.2Zm-9.5,24.7a25.8,25.8,0,0,1-5.1,8.6,24.6,24.6,0,0,1-8.1,5.8,28,28,0,0,1-10.7,2.1,26.1,26.1,0,0,1-10.6-2.1,22.8,22.8,0,0,1-8-5.8,26.8,26.8,0,0,1-5.1-8.6,32.1,32.1,0,0,1,0-21.2,25.8,25.8,0,0,1,5.1-8.6,22.8,22.8,0,0,1,8-5.8,25.5,25.5,0,0,1,10.6-2.2,24.6,24.6,0,0,1,18.8,7.9,26.8,26.8,0,0,1,5.1,8.6,33.7,33.7,0,0,1,0,21.3ZM367,251.4a50.5,50.5,0,0,0-28-28.1,57,57,0,0,0-42.2,0,50.5,50.5,0,0,0-28,28.1,58.8,58.8,0,0,0,0,42.9,50.5,50.5,0,0,0,28,28.1,57,57,0,0,0,42.2,0,50.5,50.5,0,0,0,28-28.1,59.9,59.9,0,0,0,0-42.9Zm-9.8,38.5a42.7,42.7,0,0,1-8.3,14.1,39.8,39.8,0,0,1-13.4,9.6,45.1,45.1,0,0,1-35.3,0,39.9,39.9,0,0,1-21.6-23.7,51.8,51.8,0,0,1,0-33.9,44.2,44.2,0,0,1,8.3-14.2,41.1,41.1,0,0,1,13.3-9.7,45.1,45.1,0,0,1,35.3,0,40.1,40.1,0,0,1,13.3,9.7A40.6,40.6,0,0,1,357,256a51.2,51.2,0,0,1,.1,33.9Zm82.7,22.6v11.4h9.8V215h-9.8v53.1h-.3a27.7,27.7,0,0,0-11.2-10,32,32,0,0,0-14.3-3.4,36.7,36.7,0,0,0-14.3,2.7,32.7,32.7,0,0,0-10.9,7.5,33.9,33.9,0,0,0-7.1,11.2,39.4,39.4,0,0,0,0,27.9,33.1,33.1,0,0,0,18,18.7,35,35,0,0,0,14.3,2.7,32.6,32.6,0,0,0,14.3-3.3,27.3,27.3,0,0,0,11.2-9.8h.3Zm-48.6-32.9a25.6,25.6,0,0,1,5-8.6,22,22,0,0,1,8-5.8A26.8,26.8,0,0,1,415,263a25.6,25.6,0,0,1,10.3,2.1,23.6,23.6,0,0,1,8.2,5.8,26.6,26.6,0,0,1,5.4,8.6,30.6,30.6,0,0,1,0,21.5,25,25,0,0,1-5.4,8.6,25.6,25.6,0,0,1-18.6,7.8,25.1,25.1,0,0,1-10.8-2.1,22,22,0,0,1-8-5.8,26.6,26.6,0,0,1-5-8.6,34.4,34.4,0,0,1,.1-21.3Zm81.2,5.4a21.8,21.8,0,0,1,2.2-8.3,24.7,24.7,0,0,1,5-7.1,23,23,0,0,1,16.4-6.7q10.5,0,16.2,6.3a24.4,24.4,0,0,1,6.1,15.8Zm53.8-9.8a31.2,31.2,0,0,0-6.1-10.6,27.9,27.9,0,0,0-10.1-7.2,33.6,33.6,0,0,0-14-2.7,34.1,34.1,0,0,0-13.4,2.7,32,32,0,0,0-10.8,7.4,33.1,33.1,0,0,0-7.2,11.2,37.9,37.9,0,0,0-2.6,14.1,36.1,36.1,0,0,0,2.7,14.1,34.7,34.7,0,0,0,7.2,11.2,32.8,32.8,0,0,0,11,7.4,36.6,36.6,0,0,0,13.9,2.7,38,38,0,0,0,15.6-3.3,37,37,0,0,0,13.3-10.9l-7.3-5.8a25.4,25.4,0,0,1-31.2,9.7,24.5,24.5,0,0,1-13-13.1,25.7,25.7,0,0,1-2-9.5h55.9a19.3,19.3,0,0,0,.1-2.4v-2.1a37.5,37.5,0,0,0-2-12.9Z" style="fill:#fff"/></svg>