<svg id="Layer_1" data-name="Layer 1" xmlns="http://www.w3.org/2000/svg" xmlns:xlink="http://www.w3.org/1999/xlink" viewBox="0 0 600 600"><defs><style>.cls-1{opacity:0.4;fill:url(#radial-gradient);}.cls-2{fill:#fff;}</style><radialGradient id="radial-gradient" cx="264" cy="256" fx="246.82541052561658" fy="277.6549171504555" r="755.4" gradientUnits="userSpaceOnUse"><stop offset="0" stop-color="#ddd" stop-opacity="0.15"/><stop offset="1"/></radialGradient></defs><title>default-cover-v6</title><rect class="cls-1" width="600" height="600"/><path id="audio_player" data-name="audio player" class="cls-2" d="M249.77,327q-2.75,0-5.31.19a18.55,18.55,0,0,0-4.54.86,7.1,7.1,0,0,0-3.16,2,5.42,5.42,0,0,0-1.18,3.69,5.65,5.65,0,0,0,.67,2.85,6,6,0,0,0,1.68,1.9,6.65,6.65,0,0,0,2.24,1.06,9.36,9.36,0,0,0,2.39.32,9.2,9.2,0,0,0,4.19-.88,8.48,8.48,0,0,0,3.12-2.9h.09a16.68,16.68,0,0,0,.09,1.68q.09.86.21,1.59h2.62a16.8,16.8,0,0,1-.26-2.11q-.09-1.25-.09-2.41V326a8,8,0,0,0-.6-3.23,6.15,6.15,0,0,0-1.68-2.28,7.25,7.25,0,0,0-2.49-1.36,10,10,0,0,0-3.05-.45,12.35,12.35,0,0,0-4.62.82,9.65,9.65,0,0,0-3.29,2.06l1.63,1.93a8,8,0,0,1,2.62-1.72,8.63,8.63,0,0,1,3.35-.64,5.67,5.67,0,0,1,4,1.28,5.06,5.06,0,0,1,1.38,3.89V327Zm0,2.32v1.5a7.5,7.5,0,0,1-.43,2.54,6.48,6.48,0,0,1-1.25,2.13,5.82,5.82,0,0,1-2,1.46,6.68,6.68,0,0,1-2.75.54,7.53,7.53,0,0,1-1.7-.19,4.68,4.68,0,0,1-1.53-.64,3.33,3.33,0,0,1-1.1-1.18,3.65,3.65,0,0,1-.41-1.81,2.93,2.93,0,0,1,.95-2.28A6.27,6.27,0,0,1,242,330a15.82,15.82,0,0,1,3.31-.6q1.83-.15,3.63-.15h.87ZM276,339.36q-.09-1-.13-2.32t0-2.11v-15.7h-2.92v10.32a10.69,10.69,0,0,1-.52,3.5,7.21,7.21,0,0,1-1.38,2.45,5.55,5.55,0,0,1-2,1.44,5.63,5.63,0,0,1-2.26.47,6,6,0,0,1-2.64-.52,4.2,4.2,0,0,1-1.68-1.44,6,6,0,0,1-.88-2.21,14.74,14.74,0,0,1-.26-2.88V319.24h-2.92v12.34a9.05,9.05,0,0,0,1.91,6,7.07,7.07,0,0,0,5.74,2.28,8.16,8.16,0,0,0,4.08-1.1,6.62,6.62,0,0,0,2.8-2.86H273q0,.64,0,1.64t.13,1.81H276Zm22.7-3.4v3.4h2.92V306.85h-2.92v15.87h-.09a8.31,8.31,0,0,0-3.35-3,9.58,9.58,0,0,0-4.26-1,10.78,10.78,0,0,0-4.28.82,9.75,9.75,0,0,0-3.27,2.24,10.09,10.09,0,0,0-2.11,3.35,11.93,11.93,0,0,0,0,8.34,10.09,10.09,0,0,0,2.11,3.35,9.74,9.74,0,0,0,3.27,2.24,10.8,10.8,0,0,0,4.28.82,9.75,9.75,0,0,0,4.26-1,8.26,8.26,0,0,0,3.35-2.92h.09Zm-14.49-9.83a7.67,7.67,0,0,1,1.48-2.58,7,7,0,0,1,2.39-1.74,7.71,7.71,0,0,1,3.23-.64,7.62,7.62,0,0,1,3.1.62,7.44,7.44,0,0,1,2.45,1.72,8,8,0,0,1,1.61,2.58,9.14,9.14,0,0,1,0,6.41,7.69,7.69,0,0,1-1.61,2.56,7.59,7.59,0,0,1-5.55,2.32,7.94,7.94,0,0,1-3.23-.62,6.75,6.75,0,0,1-2.39-1.72,7.67,7.67,0,0,1-1.48-2.58,9.94,9.94,0,0,1,0-6.32Zm26.7-6.9h-2.92v20.13h2.92V319.24Zm0-9.22a2.05,2.05,0,0,0-2.94,2.87l.1.1a2.06,2.06,0,0,0,2.94-2.87l-.1-.1Zm25.52,15.07a9.93,9.93,0,0,0-5.61-5.57,11.55,11.55,0,0,0-4.34-.8,11.43,11.43,0,0,0-4.3.8,9.93,9.93,0,0,0-5.61,5.57,11.55,11.55,0,0,0,0,8.43,10.13,10.13,0,0,0,2.21,3.35,10,10,0,0,0,3.4,2.21,11.43,11.43,0,0,0,4.3.8,11.55,11.55,0,0,0,4.34-.8,10,10,0,0,0,3.4-2.21,10.15,10.15,0,0,0,2.21-3.35,11.57,11.57,0,0,0,0-8.43Zm-2.84,7.38A7.76,7.76,0,0,1,332,335a7,7,0,0,1-2.41,1.72,7.83,7.83,0,0,1-3.18.62,7.67,7.67,0,0,1-3.16-.62,7,7,0,0,1-2.39-1.72,7.74,7.74,0,0,1-1.53-2.58,9.55,9.55,0,0,1,0-6.32,7.74,7.74,0,0,1,1.53-2.58,7.28,7.28,0,0,1,2.39-1.74,7.46,7.46,0,0,1,3.16-.64,7.6,7.6,0,0,1,3.18.64,7.23,7.23,0,0,1,2.41,1.74,7.76,7.76,0,0,1,1.53,2.58,9.57,9.57,0,0,1,0,6.32Zm20.58,3.5h.13a8.17,8.17,0,0,0,3.33,2.9,9.63,9.63,0,0,0,4.23,1,10.81,10.81,0,0,0,4.28-.82,9.75,9.75,0,0,0,3.27-2.24,10.09,10.09,0,0,0,2.11-3.35,11.93,11.93,0,0,0,0-8.34,10.09,10.09,0,0,0-2.11-3.35,9.76,9.76,0,0,0-3.27-2.24,10.79,10.79,0,0,0-4.28-.82,9.63,9.63,0,0,0-4.23,1,8,8,0,0,0-3.33,3h-.12v-3.48h-2.92v30.45h2.92V336Zm14.49-3.5a7.65,7.65,0,0,1-1.48,2.58,6.75,6.75,0,0,1-2.39,1.72,7.94,7.94,0,0,1-3.23.62,7.59,7.59,0,0,1-5.55-2.32,7.69,7.69,0,0,1-1.61-2.56,9.13,9.13,0,0,1,0-6.41,7.94,7.94,0,0,1,1.61-2.58,7.44,7.44,0,0,1,2.45-1.72,7.62,7.62,0,0,1,3.1-.62,7.72,7.72,0,0,1,3.23.64,7,7,0,0,1,2.39,1.74,7.65,7.65,0,0,1,1.48,2.58,9.94,9.94,0,0,1,0,6.32ZM380,306.85H377v32.51H380ZM399,327q-2.75,0-5.31.19a18.54,18.54,0,0,0-4.54.86,7.1,7.1,0,0,0-3.16,2,5.42,5.42,0,0,0-1.18,3.69,5.65,5.65,0,0,0,.67,2.85,6,6,0,0,0,1.68,1.9,6.65,6.65,0,0,0,2.24,1.06,9.37,9.37,0,0,0,2.39.32,9.2,9.2,0,0,0,4.19-.88,8.48,8.48,0,0,0,3.12-2.9h.09q0,.82.09,1.68t.21,1.59h2.62a17.18,17.18,0,0,1-.26-2.11q-.09-1.25-.09-2.41V326a8,8,0,0,0-.6-3.23,6.13,6.13,0,0,0-1.68-2.28,7.25,7.25,0,0,0-2.49-1.36,10,10,0,0,0-3.05-.45,12.36,12.36,0,0,0-4.62.82,9.65,9.65,0,0,0-3.28,2.06l1.63,1.93a8,8,0,0,1,2.62-1.72,8.63,8.63,0,0,1,3.35-.64,5.67,5.67,0,0,1,4,1.28,5.06,5.06,0,0,1,1.38,3.89V327Zm0,2.32v1.5a7.5,7.5,0,0,1-.43,2.54,6.48,6.48,0,0,1-1.25,2.13,5.82,5.82,0,0,1-2,1.46,6.68,6.68,0,0,1-2.75.54,7.53,7.53,0,0,1-1.7-.19,4.66,4.66,0,0,1-1.53-.64,3.33,3.33,0,0,1-1.1-1.18,3.65,3.65,0,0,1-.41-1.81,2.93,2.93,0,0,1,.95-2.28,6.26,6.26,0,0,1,2.43-1.31,15.83,15.83,0,0,1,3.31-.6q1.83-.15,3.63-.15H399Zm8.86-10.06h-3.27l8.6,20.08-1.63,4.21a8,8,0,0,1-1.5,2.64,3.07,3.07,0,0,1-2.36.92,6.76,6.76,0,0,1-2.15-.34l-.3,2.67a13.34,13.34,0,0,0,2.62.26,5.44,5.44,0,0,0,4-1.4,10.62,10.62,0,0,0,2.3-3.72l10-25.33H421l-6.23,17h-.09Zm21,8.51a6.79,6.79,0,0,1,.64-2.47,7.26,7.26,0,0,1,1.5-2.11,7.17,7.17,0,0,1,2.19-1.46,6.77,6.77,0,0,1,2.71-.54,6.2,6.2,0,0,1,4.84,1.87,7.26,7.26,0,0,1,1.83,4.71H428.87Zm16.06-2.92a9.24,9.24,0,0,0-1.83-3.16,8.6,8.6,0,0,0-3-2.15,10.27,10.27,0,0,0-4.17-.8,10,10,0,0,0-4,.8,9.89,9.89,0,0,0-3.23,2.21,10.19,10.19,0,0,0-2.15,3.35,11.24,11.24,0,0,0-.77,4.21,11,11,0,0,0,.8,4.21,10.48,10.48,0,0,0,2.17,3.35,9.69,9.69,0,0,0,3.29,2.21,10.71,10.71,0,0,0,4.15.8,11.13,11.13,0,0,0,4.67-1,10.92,10.92,0,0,0,4-3.27l-2.19-1.72a7.87,7.87,0,0,1-2.52,2.43,7.68,7.68,0,0,1-6.82.47,7.44,7.44,0,0,1-2.32-1.57,7.14,7.14,0,0,1-1.55-2.32,7.83,7.83,0,0,1-.6-2.84h16.68a6.8,6.8,0,0,0,0-.73v-.65a11.8,11.8,0,0,0-.62-3.87Zm5.4-1.16v15.7h2.92v-10.3a10.66,10.66,0,0,1,.5-3.45,7.09,7.09,0,0,1,1.29-2.36,4.78,4.78,0,0,1,1.87-1.35,6,6,0,0,1,2.24-.43,8.55,8.55,0,0,1,1.2.09,5.51,5.51,0,0,1,.86.17l.39-2.8a5.42,5.42,0,0,0-.92-.17q-.45,0-1,0a7,7,0,0,0-3.87,1.1,7,7,0,0,0-2.58,2.86h-.09q0-.64,0-1.63t-.13-1.81h-2.8q.09,1,.13,2.32t0,2.11h0Z"/><path id="TM" class="cls-2" d="M526.26,198.65h5.69v-1.54h-13.1v1.54h5.69V214.1h1.73V198.65Zm10.87-1.54h-2.64v17h1.73V199.34h0l6.14,14.76h.91l6.14-14.76h0V214.1h1.73v-17H548.6l-5.69,14.06h0Z"/><path id="moOde" class="cls-2" d="M80.39,237.93h-.29q0-2.16-.14-5.47t-.43-6H70.17q.29,3.46.43,7.78t.14,7.06V293.8h9.79V259.24a35.79,35.79,0,0,1,1.73-11.74,24.84,24.84,0,0,1,4.54-8.21,18.28,18.28,0,0,1,6.34-4.82,17,17,0,0,1,7-1.58,18.74,18.74,0,0,1,8.06,1.51,11.8,11.8,0,0,1,5,4.32,18.65,18.65,0,0,1,2.52,6.84,51,51,0,0,1,.72,8.93V293.8h9.79V257.94a41.72,41.72,0,0,1,1-9.22,25.17,25.17,0,0,1,3.24-8,17.19,17.19,0,0,1,5.9-5.69,17.48,17.48,0,0,1,9-2.16q9.5,0,13.46,6.48t4,17.14v37.3h9.79V252.47q0-12.53-6.41-20.16t-19.22-7.63a26.56,26.56,0,0,0-14.18,3.67,25.38,25.38,0,0,0-9.43,10.58,24.64,24.64,0,0,0-4.1-7.06,21.09,21.09,0,0,0-5.18-4.39,18.2,18.2,0,0,0-5.76-2.23,29.78,29.78,0,0,0-5.69-.58,24.93,24.93,0,0,0-13.32,3.67,22.92,22.92,0,0,0-8.86,9.58h0ZM253.71,246a33.24,33.24,0,0,0-18.79-18.65,38.66,38.66,0,0,0-14.54-2.66,38.25,38.25,0,0,0-14.4,2.66A33.24,33.24,0,0,0,187.18,246a38.71,38.71,0,0,0,0,28.22,33.93,33.93,0,0,0,7.42,11.23A33.58,33.58,0,0,0,206,292.86a38.25,38.25,0,0,0,14.4,2.66,38.66,38.66,0,0,0,14.54-2.66,33.6,33.6,0,0,0,11.38-7.42,34,34,0,0,0,7.42-11.23,38.71,38.71,0,0,0,0-28.22Zm-9.5,24.7a26,26,0,0,1-5.11,8.64,23.36,23.36,0,0,1-8.06,5.76,26.21,26.21,0,0,1-10.66,2.09,25.69,25.69,0,0,1-10.58-2.09,23.5,23.5,0,0,1-8-5.76,25.9,25.9,0,0,1-5.11-8.64,32,32,0,0,1,0-21.17,25.9,25.9,0,0,1,5.11-8.64,24.37,24.37,0,0,1,8-5.83,25,25,0,0,1,10.58-2.16A25.47,25.47,0,0,1,231,235a24.2,24.2,0,0,1,8.06,5.83,26,26,0,0,1,5.11,8.64,32,32,0,0,1,0,21.16ZM366.9,221.37a50.6,50.6,0,0,0-28-28.08,57.2,57.2,0,0,0-42.19,0,50.6,50.6,0,0,0-28,28.08,59.1,59.1,0,0,0,0,42.91,50.6,50.6,0,0,0,28,28.08,57.2,57.2,0,0,0,42.19,0,50.6,50.6,0,0,0,28-28.08A58.9,58.9,0,0,0,366.9,221.37Zm-9.8,38.49a41.61,41.61,0,0,1-8.35,14.09,40.5,40.5,0,0,1-13.32,9.63,45.1,45.1,0,0,1-35.28,0,40.46,40.46,0,0,1-13.32-9.63,41.55,41.55,0,0,1-8.35-14.09,51.41,51.41,0,0,1,0-33.93,42.34,42.34,0,0,1,8.35-14.16,40,40,0,0,1,13.32-9.71,45.08,45.08,0,0,1,35.28,0,40,40,0,0,1,13.32,9.71,42.41,42.41,0,0,1,8.35,14.16A51.41,51.41,0,0,1,357.1,259.86Zm82.73,22.56V293.8h9.79V184.93h-9.79v53.14h-.29a27.84,27.84,0,0,0-11.23-10,32.08,32.08,0,0,0-14.26-3.38,36.15,36.15,0,0,0-14.33,2.74,32.65,32.65,0,0,0-10.94,7.49,33.79,33.79,0,0,0-7.06,11.23,40,40,0,0,0,0,27.94,33.79,33.79,0,0,0,7.06,11.23,32.62,32.62,0,0,0,10.94,7.49,36.17,36.17,0,0,0,14.33,2.74,32.65,32.65,0,0,0,14.26-3.31,27.64,27.64,0,0,0,11.23-9.79h.29Zm-48.53-32.9a25.62,25.62,0,0,1,5-8.64,23.42,23.42,0,0,1,8-5.83,25.83,25.83,0,0,1,10.8-2.16A25.5,25.5,0,0,1,425.43,235a24.9,24.9,0,0,1,8.21,5.76,26.6,26.6,0,0,1,5.4,8.64,30.57,30.57,0,0,1,0,21.46,25.77,25.77,0,0,1-5.4,8.57,25.42,25.42,0,0,1-18.58,7.78,26.58,26.58,0,0,1-10.8-2.09,22.62,22.62,0,0,1-8-5.76,25.62,25.62,0,0,1-5-8.64,33.28,33.28,0,0,1,0-21.17Zm81.21,5.4a22.72,22.72,0,0,1,2.16-8.28,24.31,24.31,0,0,1,5-7.06,24,24,0,0,1,7.34-4.9,22.68,22.68,0,0,1,9.07-1.8q10.51,0,16.2,6.26a24.3,24.3,0,0,1,6.12,15.77H472.51Zm53.78-9.79a31,31,0,0,0-6.12-10.58,28.81,28.81,0,0,0-10.08-7.2,34.39,34.39,0,0,0-14-2.66,33.53,33.53,0,0,0-13.39,2.66,33.1,33.1,0,0,0-10.8,7.42,34.13,34.13,0,0,0-7.2,11.23,37.66,37.66,0,0,0-2.59,14.11,36.72,36.72,0,0,0,2.66,14.11,35.08,35.08,0,0,0,7.27,11.23,32.52,32.52,0,0,0,11,7.42,35.85,35.85,0,0,0,13.9,2.66,37.27,37.27,0,0,0,15.62-3.31,36.53,36.53,0,0,0,13.32-10.94l-7.34-5.76a26.39,26.39,0,0,1-8.42,8.14,25.74,25.74,0,0,1-22.82,1.58,25,25,0,0,1-7.78-5.26,23.91,23.91,0,0,1-5.18-7.78,26.23,26.23,0,0,1-2-9.5h55.87a22.7,22.7,0,0,0,.14-2.45v-2.16a39.5,39.5,0,0,0-2.09-13Z"/></svg>