<svg xmlns="http://www.w3.org/2000/svg" width="56.1" height="13.1" viewBox="0 0 56.1 13.1"><title>radio</title><text transform="translate(11.9 8.5)" style="font-size:10px;fill:#ddd;font-family:Lato, sans-serif;font-weight:700">RADIO</text><path d="M4.9,12.5A3.4,3.4,0,0,0,5,13.6a3.5,3.5,0,0,0,.5.9l-.3.2a3.8,3.8,0,0,1-.5-1,3.8,3.8,0,0,1,0-2.4,3.8,3.8,0,0,1,.5-1l.3.2a3.5,3.5,0,0,0-.5.9A3.4,3.4,0,0,0,4.9,12.5Z" transform="translate(-4.4 -7.9)" style="fill:#ddd"/><path d="M10.8,12.5a6.8,6.8,0,0,0,.4,2.2,7,7,0,0,0,1,1.9l-.7.4a7.7,7.7,0,0,1-1.1-2.1,7.5,7.5,0,0,1,0-4.9A7.7,7.7,0,0,1,11.5,8l.7.4a7,7,0,0,0-1,1.9A6.8,6.8,0,0,0,10.8,12.5Z" transform="translate(-4.4 -7.9)" style="fill:#ddd"/><path d="M7.9,12.5a5.1,5.1,0,0,0,.3,1.6,5.3,5.3,0,0,0,.7,1.4l-.5.3a5.8,5.8,0,0,1-.8-1.5,5.7,5.7,0,0,1,0-3.7,5.7,5.7,0,0,1,.8-1.5l.5.3a5.3,5.3,0,0,0-.7,1.4A5.1,5.1,0,0,0,7.9,12.5Z" transform="translate(-4.4 -7.9)" style="fill:#ddd"/><path d="M60.1,12.5a3.4,3.4,0,0,0-.2-1.1,3.5,3.5,0,0,0-.5-.9l.3-.2a3.8,3.8,0,0,1,.5,1,3.8,3.8,0,0,1,0,2.4,3.8,3.8,0,0,1-.5,1l-.3-.2a3.5,3.5,0,0,0,.5-.9A3.4,3.4,0,0,0,60.1,12.5Z" transform="translate(-4.4 -7.9)" style="fill:#ddd"/><path d="M54.2,12.5a6.8,6.8,0,0,0-.4-2.2,7,7,0,0,0-1-1.9l.7-.4a7.7,7.7,0,0,1,1.1,2.1,7.5,7.5,0,0,1,0,4.9A7.7,7.7,0,0,1,53.5,17l-.7-.4a7,7,0,0,0,1-1.9A6.7,6.7,0,0,0,54.2,12.5Z" transform="translate(-4.4 -7.9)" style="fill:#ddd"/><path d="M57.1,12.5a5.1,5.1,0,0,0-.3-1.6,5.3,5.3,0,0,0-.7-1.4l.5-.3a5.8,5.8,0,0,1,.8,1.5,5.7,5.7,0,0,1,0,3.7,5.8,5.8,0,0,1-.8,1.5l-.5-.3a5.3,5.3,0,0,0,.7-1.4A5.1,5.1,0,0,0,57.1,12.5Z" transform="translate(-4.4 -7.9)" style="fill:#ddd"/></svg>
