<?xml version="1.0" standalone="no"?>
<!DOCTYPE svg PUBLIC "-//W3C//DTD SVG 20010904//EN"
 "http://www.w3.org/TR/2001/REC-SVG-20010904/DTD/svg10.dtd">
<svg version="1.0" xmlns="http://www.w3.org/2000/svg"
 width="512.000000pt" height="512.000000pt" viewBox="0 0 512.000000 512.000000"
 preserveAspectRatio="xMidYMid meet">
<metadata>
Created by potrace 1.11, written by Peter Selinger 2001-2013
</metadata>
<g transform="translate(0.000000,512.000000) scale(0.100000,-0.100000)"
fill="#000000" stroke="none">
<path d="M0 2560 l0 -2560 2560 0 2560 0 0 2560 0 2560 -2560 0 -2560 0 0
-2560z m3628 8 l2 -388 -50 0 -50 0 0 34 0 34 -29 -27 c-88 -82 -268 -61 -340
40 -62 84 -68 220 -14 307 72 116 244 149 343 65 l30 -25 0 169 c0 94 3 173 7
177 4 4 28 6 53 4 l45 -3 3 -387z m-755 314 c80 -40 147 -111 178 -190 18 -44
23 -78 23 -152 1 -84 -3 -102 -27 -155 -38 -81 -70 -120 -130 -160 -75 -49
-153 -68 -251 -63 -145 8 -256 80 -319 207 -30 61 -32 72 -32 171 0 94 3 111
28 165 68 147 191 217 368 212 85 -2 103 -6 162 -35z m-1609 -216 c19 -8 44
-28 57 -45 l22 -30 19 25 c44 55 145 80 215 53 15 -5 40 -22 56 -37 45 -43 57
-105 57 -289 l0 -163 -49 0 -49 0 -4 163 c-4 182 -13 214 -69 237 -46 20 -106
-3 -134 -50 -17 -30 -20 -56 -23 -192 l-4 -158 -49 0 -49 0 0 168 c0 148 -2
171 -20 199 -40 66 -144 50 -180 -29 -17 -36 -20 -66 -20 -190 l0 -148 -50 0
-50 0 0 240 0 240 45 0 45 0 0 -37 1 -38 24 27 c56 65 135 85 209 54z m861
-10 c98 -46 145 -121 145 -231 0 -76 -15 -117 -61 -170 -88 -100 -255 -114
-364 -31 -111 85 -127 265 -32 373 72 82 209 108 312 59z m1958 -12 c54 -37
95 -118 99 -194 l3 -55 -192 -3 c-124 -1 -193 -6 -193 -13 0 -21 30 -67 60
-92 58 -49 156 -43 217 15 l22 20 30 -22 c38 -26 38 -34 4 -66 -44 -40 -82
-56 -150 -62 -93 -7 -148 12 -208 72 -55 56 -75 103 -75 181 0 78 20 125 75
180 61 62 98 75 193 71 62 -3 80 -8 115 -32z"/>
<path d="M3300 2578 c-60 -31 -85 -76 -85 -154 0 -80 34 -134 99 -159 144 -55
266 101 194 245 -25 48 -89 90 -138 90 -14 0 -46 -10 -70 -22z"/>
<path d="M2617 2826 c-203 -57 -263 -362 -99 -507 146 -128 379 -59 432 129
13 47 13 147 0 194 -39 139 -192 224 -333 184z"/>
<path d="M1944 2582 c-59 -28 -89 -81 -89 -157 0 -79 30 -130 93 -157 141 -63
271 89 203 238 -36 80 -127 113 -207 76z"/>
<path d="M3885 2581 c-41 -18 -66 -46 -79 -88 l-7 -23 140 0 c136 0 141 1 141
21 0 36 -32 78 -72 94 -49 19 -74 19 -123 -4z"/>
</g>
</svg>
