<svg xmlns="http://www.w3.org/2000/svg" viewBox="0 0 640 512" fill="#202020"><!--! Font Awesome Pro 6.4.2 by @fontawesome - https://fontawesome.com License - https://fontawesome.com/license (Commercial License) Copyright 2023 Fonticons, Inc. --><path d="M429 64h38.5l4.3 28.4L500.2 282l20.4-95 5.8-27h30.4l9.5 22.8L600 264h8 24v48H608 584 568l-6.2-14.8-10.5-25.1L519.5 421l-5.8 27H476.5l-4.3-28.4L446.8 249.5 407.7 483.9 403 512H364.3l-4.1-28.6L320 201.7 279.8 483.4 275.7 512H237l-4.7-28.1L193.2 249.5 167.7 419.6 163.5 448H126.3l-5.8-27L88.6 272.1 78.2 297.2 72 312H56 32 8V264H32h8l33.8-81.2L83.3 160h30.4l5.8 27 20.4 95L168.3 92.4 172.5 64H211l4.7 28.1 38.5 231L296.2 28.6 300.3 0h39.3l4.1 28.6 42.1 294.5 38.5-231L429 64z"/></svg>
